<?xml version="1.0" standalone="no"?>
<!DOCTYPE svg PUBLIC "-//W3C//DTD SVG 20010904//EN"
 "http://www.w3.org/TR/2001/REC-SVG-20010904/DTD/svg10.dtd">
<svg version="1.0" xmlns="http://www.w3.org/2000/svg"
 width="74.000000pt" height="100.000000pt" viewBox="0 0 74.000000 100.000000"
 preserveAspectRatio="xMidYMid meet">
<metadata>
Created by potrace 1.15, written by Peter Selinger 2001-2017
</metadata>
<g transform="translate(0.000000,100.000000) scale(0.100000,-0.100000)"
fill="#000000" stroke="none">
<path d="M120 851 c0 -50 78 -153 230 -305 170 -170 193 -184 234 -142 47 46
39 59 -136 232 -197 193 -328 279 -328 215z m289 -205 l114 -114 -28 -26 c-15
-14 -31 -26 -34 -26 -13 0 -221 217 -221 230 0 17 29 50 44 50 6 0 63 -51 125
-114z"/>
<path d="M257 302 c-124 -123 -127 -129 -109 -145 18 -16 23 -13 115 80 153
156 170 175 155 185 -7 4 -17 8 -23 8 -5 0 -68 -58 -138 -128z"/>
</g>
</svg>
